<svg width="38" height="38" fill="none" xmlns="http://www.w3.org/2000/svg"><path d="M29.387 6.556H8.613a4.421 4.421 0 00-3.105 1.268 4.302 4.302 0 00-1.286 3.063v16.226c0 1.149.463 2.25 1.286 3.063a4.42 4.42 0 003.105 1.268h20.774a4.42 4.42 0 003.105-1.268 4.303 4.303 0 001.286-3.063V10.887c0-1.149-.463-2.25-1.286-3.063a4.421 4.421 0 00-3.105-1.268zm-.276 3.712l-9.835 8.75a.632.632 0 01-.84 0L8.5 10.268h20.61zm.276 17.463H8.613a.632.632 0 01-.444-.18.615.615 0 01-.183-.438V14.81l7.903 6.98a4.425 4.425 0 002.929 1.105 4.426 4.426 0 002.93-1.105l8.266-7.327v12.649a.61.61 0 01-.183.437.63.63 0 01-.444.181z" fill="#FFA180"/></svg>