<svg width="140" height="46" fill="none" xmlns="http://www.w3.org/2000/svg"><path d="M15.127 5.316v17.737h-3.128V8.103H3.128v14.95H0V5.316h15.127zM32.78 20.29v2.763H19.95V5.316h12.487v2.762h-9.31v4.611h8.26V15.4h-8.26v4.89h9.652zM43.359 5.316c1.482 0 2.77.253 3.86.76 1.109.507 1.956 1.233 2.542 2.18.587.945.88 2.068.88 3.37 0 1.283-.293 2.406-.88 3.37-.586.945-1.433 1.671-2.541 2.178-1.092.507-2.379.76-3.861.76h-3.861v5.119H36.32V5.316h7.038zm-.147 9.831c1.385 0 2.436-.304 3.152-.912.717-.608 1.076-1.478 1.076-2.61s-.359-2.002-1.075-2.61c-.717-.608-1.768-.912-3.153-.912h-3.714v7.044h3.714zm18.542 8.159c-1.727 0-3.291-.389-4.692-1.166a8.725 8.725 0 01-3.275-3.268c-.782-1.385-1.173-2.948-1.173-4.688 0-1.74.4-3.302 1.198-4.687a8.54 8.54 0 013.274-3.244c1.401-.794 2.965-1.19 4.692-1.19 1.401 0 2.68.253 3.837.76a7.845 7.845 0 012.932 2.204l-2.052 2.002c-1.239-1.385-2.762-2.078-4.57-2.078-1.173 0-2.224.27-3.153.81a5.56 5.56 0 00-2.175 2.205c-.52.946-.782 2.019-.782 3.218 0 1.2.261 2.272.782 3.218a5.735 5.735 0 002.175 2.23c.929.524 1.98.785 3.153.785 1.808 0 3.331-.7 4.57-2.103l2.052 2.027a7.8 7.8 0 01-2.957 2.205c-1.156.507-2.435.76-3.836.76zm56.414-17.99v17.737h-3.177V15.45h-8.846v7.602h-3.177V5.316h3.177v7.323h8.846V5.316h3.177zm16.137 13.632h-8.553l-1.686 4.105h-3.275l7.698-17.737h3.128l7.722 17.737h-3.323l-1.711-4.105zm-1.051-2.585l-3.226-7.753-3.201 7.753h6.427zM11.779 41.829V46H9.962v-2.4h-8.13V46H0l.015-4.171H.47c.666-.033 1.13-.553 1.393-1.563.273-1.02.44-2.475.5-4.364l.12-3.576h7.768v9.503h1.529zm-7.691-5.734c-.05 1.46-.162 2.679-.333 3.656-.172.966-.444 1.659-.818 2.078h5.375v-7.731H4.163l-.075 1.997zm17.492 5.75V43.6h-7.948V32.326h7.736v1.756H15.6v2.93h5.117v1.724H15.6v3.109h5.98zm9.885-7.747h-3.512V43.6H26v-9.502h-3.498v-1.772h8.963v1.772zm6.425 9.663c-1.07 0-2.04-.247-2.907-.74a5.478 5.478 0 01-2.03-2.078c-.484-.88-.726-1.874-.726-2.98 0-1.106.248-2.099.742-2.98a5.359 5.359 0 012.029-2.061c.868-.505 1.837-.757 2.907-.757.867 0 1.66.161 2.376.483.717.322 1.323.79 1.817 1.401l-1.271 1.273c-.768-.88-1.711-1.32-2.832-1.32-.726 0-1.377.17-1.953.514-.575.333-1.024.8-1.347 1.402-.323.601-.484 1.283-.484 2.045s.161 1.444.484 2.046a3.604 3.604 0 001.347 1.417c.576.333 1.227.5 1.953.5 1.12 0 2.064-.446 2.832-1.338l1.271 1.289a4.845 4.845 0 01-1.832 1.401c-.716.322-1.509.483-2.377.483zm14.714-9.663h-3.512V43.6h-1.953v-9.502H43.64v-1.772h8.963v1.772zm8.676 3.64c.677.193 1.192.526 1.545.998.353.462.53 1.042.53 1.74 0 .988-.343 1.755-1.03 2.303-.686.547-1.68.821-2.982.821h-5.026V32.326h4.738c1.191 0 2.12.252 2.786.757.666.505 1 1.219 1 2.142 0 .59-.137 1.1-.41 1.53-.262.43-.646.757-1.15.983zm-5.026-.596h2.635c.636 0 1.12-.135 1.453-.403.333-.268.5-.666.5-1.192 0-.526-.167-.923-.5-1.192-.333-.279-.817-.418-1.453-.418h-2.635v3.205zm3.028 4.848c1.393 0 2.09-.559 2.09-1.675 0-1.096-.697-1.643-2.09-1.643h-3.027v3.318h3.027zm11.22 1.771c-1.08 0-2.054-.247-2.922-.74a5.444 5.444 0 01-2.044-2.078c-.494-.892-.741-1.885-.741-2.98s.247-2.083.741-2.963a5.299 5.299 0 012.044-2.078c.868-.505 1.842-.757 2.922-.757s2.054.252 2.922.757a5.328 5.328 0 012.044 2.062c.495.88.742 1.873.742 2.98 0 1.105-.247 2.098-.742 2.979a5.443 5.443 0 01-2.044 2.077c-.868.494-1.842.741-2.922.741zm0-1.836c.707 0 1.343-.166 1.908-.5a3.638 3.638 0 001.332-1.416 4.314 4.314 0 00.484-2.046c0-.752-.161-1.428-.484-2.03a3.497 3.497 0 00-1.332-1.416A3.599 3.599 0 0070.502 34a3.6 3.6 0 00-1.907.516 3.498 3.498 0 00-1.333 1.417c-.323.601-.484 1.278-.484 2.03 0 .75.161 1.433.484 2.045a3.64 3.64 0 001.333 1.417c.565.333 1.2.5 1.907.5z" fill="#fff"/><path d="M75.079 13.438h-2.683c.032-1.588.34-3.16.909-4.636a13.27 13.27 0 012.748-4.361 12.71 12.71 0 014.153-2.917A12.318 12.318 0 0185.118.5c1.686 0 3.355.348 4.911 1.024a12.711 12.711 0 014.154 2.917A13.27 13.27 0 0196.93 8.8a13.65 13.65 0 01.909 4.637h-2.682c-.12-2.572-1.158-5.016-2.926-6.85-1.883-1.952-4.442-3.053-7.113-3.053-2.672 0-5.23 1.1-7.114 3.054-1.768 1.833-2.806 4.277-2.925 6.85z" stroke="#fff"/><path d="M94.668 13.938h3.672a14.158 14.158 0 01-.943 5.317 13.771 13.771 0 01-2.852 4.525 13.21 13.21 0 01-4.316 3.03 12.818 12.818 0 01-5.111 1.066 12.82 12.82 0 01-5.111-1.065 13.21 13.21 0 01-4.317-3.031 13.771 13.771 0 01-2.852-4.525 14.16 14.16 0 01-.942-5.317h3.664c0 2.627 1.006 5.146 2.797 7.003 1.791 1.857 4.22 2.9 6.753 2.9 2.533 0 4.963-1.043 6.754-2.9 1.79-1.857 2.797-4.376 2.797-7.003h.007z" fill="#fff"/></svg>