<svg width="38" height="38" fill="none" xmlns="http://www.w3.org/2000/svg"><path d="M27.237 5.796A15.561 15.561 0 005.907 27.4l-2.421 6.278a.65.65 0 00.826.839l6.48-2.315A15.557 15.557 0 0027.237 5.796zm-.44 17.74a3.906 3.906 0 01-3.888 3.243c-2.038 0-5.944-2.434-7.587-4.077-1.643-1.643-4.077-5.553-4.077-7.587a3.906 3.906 0 013.242-3.889h1.318a.65.65 0 01.58.356s.786 1.586 1.318 2.584c.576 1.124-.505 2.447-1.125 3.075a7.794 7.794 0 001.652 2.601 7.8 7.8 0 002.601 1.652c.624-.615 1.946-1.7 3.076-1.125.992.519 2.583 1.318 2.583 1.318a.65.65 0 01.36.585l-.053 1.265z" fill="#80C3BA"/></svg>